Coordinates
version=1
nRows=13
nColumns=17
inDegrees=yes

Units are S.I. units (second, meters, Newtons, ...)
If the header above contains a line with 'inDegrees', this indicates whether rotational values are in degrees (yes) or radians (no).

endheader
time	pelvis_tilt	pelvis_tx	pelvis_ty	hip_flexion_l	hip_flexion_r	knee_angle_l	knee_angle_r	ankle_angle_l	ankle_angle_r	lumbar_extension	FC_flexion	FC_adduction	FC_rotation	FC_tx	FC_ty	FC_tz
      3.51000000	     97.46890963	     -0.31635596	      1.03962115	     -6.26072568	      4.83662205	     -4.63224860	    -12.01126508	    -36.02329770	     -2.84829176	    -22.27768485	     81.79872367	     46.94495225	     90.25274739	      0.05021703	     -0.02622305	     -0.17975828
      3.52000000	     97.46987777	     -0.31635831	      1.03960604	     -6.25936850	      4.83269205	     -4.63194433	    -11.99935114	    -36.02200331	     -2.79101491	    -22.26438345	     81.83097503	     46.93059829	     90.22770778	      0.05021724	     -0.02624313	     -0.17971963
      3.53000000	     97.47047381	     -0.31637398	      1.03960815	     -6.26135745	      4.83972689	     -4.63390711	    -12.01149509	    -36.02348249	     -2.75745262	    -22.27032569	     81.85441467	     46.92679511	     90.24529769	      0.05028590	     -0.02612821	     -0.17968859
      3.54000000	     97.46845670	     -0.31638999	      1.03962809	     -6.25092551	      4.81982205	     -4.64486785	    -11.96948362	    -36.03320617	     -2.69068147	    -22.26623776	     81.87263298	     46.91513812	     90.22159102	      0.05029090	     -0.02620064	     -0.17967903
      3.55000000	     97.46881665	     -0.31639316	      1.03960678	     -6.25213738	      4.82706109	     -4.64438377	    -11.97349552	    -36.03313572	     -2.66177439	    -22.27260349	     81.89222148	     46.89963772	     90.24324535	      0.05033921	     -0.02607898	     -0.17967367
      3.56000000	     97.54336793	     -0.31637673	      1.03964889	     -6.31468848	      4.75136941	     -4.68767839	    -11.99208240	    -35.92338833	     -3.41172092	    -22.33545710	     82.74509053	     46.88892411	     90.25083979	      0.05191876	     -0.02375556	     -0.17958513
      3.57000000	     97.53804240	     -0.31638962	      1.03964283	     -6.31266700	      4.75296485	     -4.68653321	    -11.97467316	    -35.92351985	     -3.38783872	    -22.33910887	     82.76642128	     46.88573791	     90.27731129	      0.05195591	     -0.02365714	     -0.17957678
      3.58000000	     97.53627544	     -0.31639734	      1.03960374	     -6.30874977	      4.75815530	     -4.68519723	    -11.97179616	    -35.92670114	     -3.35687194	    -22.34242092	     82.79418822	     46.86421299	     90.30507564	      0.05201389	     -0.02358129	     -0.17950703
      3.59000000	     97.53489302	     -0.31638763	      1.03959433	     -6.30692666	      4.75681888	     -4.68380290	    -11.95437116	    -35.92782820	     -3.32588681	    -22.33542167	     82.82868681	     46.84366685	     90.32226893	      0.05206230	     -0.02342500	     -0.17947468
      3.60000000	     97.50837230	     -0.31636059	      1.03964062	     -6.27104091	      4.78152742	     -4.69240313	    -11.93647590	    -35.98385782	     -3.37372064	    -22.30697302	     83.02503767	     46.80364284	     90.28539329	      0.05221103	     -0.02316759	     -0.17938870
      3.61000000	     97.52034229	     -0.31634404	      1.03965198	     -6.28364043	      4.76291953	     -4.69779392	    -11.91884296	    -35.97370017	     -3.26697056	    -22.31839968	     83.04644710	     46.77492859	     90.26955613	      0.05215680	     -0.02321794	     -0.17927000
      3.62000000	     97.52342837	     -0.31637029	      1.03970218	     -6.28572151	      4.75201462	     -4.70251715	    -11.91400288	    -35.97616222	     -3.22341156	    -22.30532674	     83.08447310	     46.73386002	     90.30390765	      0.05232887	     -0.02301012	     -0.17922093
      3.63000000	     97.53082169	     -0.31633019	      1.03966451	     -6.29327917	      4.74960761	     -4.70523143	    -11.90076760	    -35.97034922	     -3.11179188	    -22.32371156	     83.12798864	     46.69647520	     90.27022821	      0.05226286	     -0.02306954	     -0.17912541
